<mxfile host="app.diagrams.net" modified="2023-01-20T05:38:01.751Z" agent="5.0 (Windows NT 10.0; Win64; x64) AppleWebKit/537.36 (KHTML, like Gecko) Chrome/109.0.0.0 Safari/537.36" etag="4IxCiFYiMSty3DTwj10y" version="20.8.8" type="github">
  <diagram name="Page-1" id="oer-Pz91I18PphJH4oSG">
    <mxGraphModel dx="1434" dy="764" grid="1" gridSize="10" guides="1" tooltips="1" connect="1" arrows="1" fold="1" page="1" pageScale="1" pageWidth="850" pageHeight="1100" math="0" shadow="0">
      <root>
        <mxCell id="0" />
        <mxCell id="1" parent="0" />
        <mxCell id="ZBdkHftqGYwJAvsm36wG-9" style="edgeStyle=orthogonalEdgeStyle;rounded=0;orthogonalLoop=1;jettySize=auto;html=1;entryX=0.5;entryY=0;entryDx=0;entryDy=0;" edge="1" parent="1" source="ZBdkHftqGYwJAvsm36wG-1" target="ZBdkHftqGYwJAvsm36wG-4">
          <mxGeometry relative="1" as="geometry" />
        </mxCell>
        <mxCell id="ZBdkHftqGYwJAvsm36wG-1" value="Actor" style="shape=umlActor;verticalLabelPosition=bottom;verticalAlign=top;html=1;outlineConnect=0;" vertex="1" parent="1">
          <mxGeometry x="395" y="40" width="30" height="60" as="geometry" />
        </mxCell>
        <mxCell id="ZBdkHftqGYwJAvsm36wG-15" style="edgeStyle=orthogonalEdgeStyle;rounded=0;orthogonalLoop=1;jettySize=auto;html=1;exitX=0.5;exitY=1;exitDx=0;exitDy=0;entryX=1;entryY=0.5;entryDx=0;entryDy=0;" edge="1" parent="1" source="ZBdkHftqGYwJAvsm36wG-2" target="ZBdkHftqGYwJAvsm36wG-12">
          <mxGeometry relative="1" as="geometry" />
        </mxCell>
        <mxCell id="ZBdkHftqGYwJAvsm36wG-2" value="Admin" style="rounded=0;whiteSpace=wrap;html=1;" vertex="1" parent="1">
          <mxGeometry x="610" y="190" width="120" height="60" as="geometry" />
        </mxCell>
        <mxCell id="ZBdkHftqGYwJAvsm36wG-14" style="edgeStyle=orthogonalEdgeStyle;rounded=0;orthogonalLoop=1;jettySize=auto;html=1;exitX=0.5;exitY=1;exitDx=0;exitDy=0;entryX=0;entryY=0.5;entryDx=0;entryDy=0;" edge="1" parent="1" source="ZBdkHftqGYwJAvsm36wG-3" target="ZBdkHftqGYwJAvsm36wG-12">
          <mxGeometry relative="1" as="geometry" />
        </mxCell>
        <mxCell id="ZBdkHftqGYwJAvsm36wG-3" value="User" style="rounded=0;whiteSpace=wrap;html=1;" vertex="1" parent="1">
          <mxGeometry x="100" y="190" width="120" height="60" as="geometry" />
        </mxCell>
        <mxCell id="ZBdkHftqGYwJAvsm36wG-7" style="edgeStyle=orthogonalEdgeStyle;rounded=0;orthogonalLoop=1;jettySize=auto;html=1;exitX=0;exitY=0.5;exitDx=0;exitDy=0;entryX=1;entryY=0.5;entryDx=0;entryDy=0;" edge="1" parent="1" source="ZBdkHftqGYwJAvsm36wG-4" target="ZBdkHftqGYwJAvsm36wG-3">
          <mxGeometry relative="1" as="geometry" />
        </mxCell>
        <mxCell id="ZBdkHftqGYwJAvsm36wG-8" style="edgeStyle=orthogonalEdgeStyle;rounded=0;orthogonalLoop=1;jettySize=auto;html=1;exitX=1;exitY=0.5;exitDx=0;exitDy=0;entryX=0;entryY=0.5;entryDx=0;entryDy=0;" edge="1" parent="1" source="ZBdkHftqGYwJAvsm36wG-4" target="ZBdkHftqGYwJAvsm36wG-2">
          <mxGeometry relative="1" as="geometry" />
        </mxCell>
        <mxCell id="ZBdkHftqGYwJAvsm36wG-4" value="Login" style="rhombus;whiteSpace=wrap;html=1;" vertex="1" parent="1">
          <mxGeometry x="370" y="180" width="80" height="80" as="geometry" />
        </mxCell>
        <mxCell id="ZBdkHftqGYwJAvsm36wG-10" value="View Status" style="rounded=0;whiteSpace=wrap;html=1;" vertex="1" parent="1">
          <mxGeometry x="100" y="620" width="120" height="60" as="geometry" />
        </mxCell>
        <mxCell id="ZBdkHftqGYwJAvsm36wG-11" value="CRUD status" style="rounded=0;whiteSpace=wrap;html=1;" vertex="1" parent="1">
          <mxGeometry x="600" y="620" width="120" height="60" as="geometry" />
        </mxCell>
        <mxCell id="ZBdkHftqGYwJAvsm36wG-17" style="edgeStyle=orthogonalEdgeStyle;rounded=0;orthogonalLoop=1;jettySize=auto;html=1;exitX=0.5;exitY=1;exitDx=0;exitDy=0;entryX=0.5;entryY=0;entryDx=0;entryDy=0;" edge="1" parent="1" source="ZBdkHftqGYwJAvsm36wG-12" target="ZBdkHftqGYwJAvsm36wG-16">
          <mxGeometry relative="1" as="geometry" />
        </mxCell>
        <mxCell id="ZBdkHftqGYwJAvsm36wG-12" value="Check license" style="rhombus;whiteSpace=wrap;html=1;" vertex="1" parent="1">
          <mxGeometry x="360" y="340" width="100" height="90" as="geometry" />
        </mxCell>
        <mxCell id="ZBdkHftqGYwJAvsm36wG-18" style="edgeStyle=orthogonalEdgeStyle;rounded=0;orthogonalLoop=1;jettySize=auto;html=1;exitX=0.5;exitY=1;exitDx=0;exitDy=0;entryX=1;entryY=0.5;entryDx=0;entryDy=0;" edge="1" parent="1" source="ZBdkHftqGYwJAvsm36wG-16" target="ZBdkHftqGYwJAvsm36wG-10">
          <mxGeometry relative="1" as="geometry" />
        </mxCell>
        <mxCell id="ZBdkHftqGYwJAvsm36wG-20" style="edgeStyle=orthogonalEdgeStyle;rounded=0;orthogonalLoop=1;jettySize=auto;html=1;exitX=0.5;exitY=1;exitDx=0;exitDy=0;entryX=0;entryY=0.5;entryDx=0;entryDy=0;" edge="1" parent="1" source="ZBdkHftqGYwJAvsm36wG-16" target="ZBdkHftqGYwJAvsm36wG-11">
          <mxGeometry relative="1" as="geometry" />
        </mxCell>
        <mxCell id="ZBdkHftqGYwJAvsm36wG-16" value="Check permissions" style="rhombus;whiteSpace=wrap;html=1;" vertex="1" parent="1">
          <mxGeometry x="360" y="460" width="100" height="100" as="geometry" />
        </mxCell>
      </root>
    </mxGraphModel>
  </diagram>
</mxfile>
